<svg width="167" height="146" viewBox="0 0 167 146" fill="none" xmlns="http://www.w3.org/2000/svg">
<rect width="167" height="146" fill="white"/>
<g clip-path="url(#clip0_9_2)">
<path d="M83.5687 95.9975C83.5014 95.9553 83.4284 95.8981 83.3498 95.841C82.0981 94.467 74.3547 85.8802 66.4653 74.8659C64.0966 71.3577 62.5613 68.6196 62.8588 67.9115C63.6307 66.0704 77.3858 65.0617 81.621 66.7313C82.9092 67.2382 82.8755 67.9066 82.8755 68.2991C82.8755 69.9837 82.7829 74.5057 82.7829 74.5057C82.7829 75.4399 83.6389 76.1977 84.697 76.1952C85.7551 76.1952 86.6083 75.4324 86.6055 74.4957L86.5858 63.233H86.583C86.583 62.2541 85.3762 62.0106 85.1517 61.9708C82.9401 61.9584 78.4523 61.9485 73.6306 61.9485C62.9936 61.9485 60.6136 62.3361 58.8117 61.2876C54.8965 59.0216 48.4947 43.7463 48.3459 35.1495C48.1354 23.0246 56.2465 12.5272 67.675 7.32689C72.4462 5.20006 77.8349 4 83.5322 4C101.618 4 116.515 16.0851 118.497 31.6363C118.497 31.6487 118.497 31.6661 118.5 31.6785C118.865 35.4377 95.4603 36.2353 90.8322 35.1421C90.1221 34.9756 89.9425 34.3296 89.9425 34.0538C89.9397 31.1965 89.9173 23.1513 89.9173 23.1513C89.9145 22.2147 89.0556 21.4593 87.9975 21.4593C86.9423 21.4593 86.0863 22.2221 86.0863 23.1588L86.1283 37.977C86.162 38.9112 87.0461 39.1621 87.2903 39.2069C89.9229 39.2069 96.0777 39.2044 101.812 39.2044C109.561 39.2044 112.816 39.9995 114.983 41.4579C116.423 42.4294 116.978 44.2904 116.493 46.7104C112.146 68.2271 84.6128 94.8894 83.5772 96L83.5687 95.9975Z" fill="#FC8019"/>
</g>
<path d="M39.912 119.28L39.552 120H34.08V119.442L35.772 118.11V107.202L33.9 106.572L34.26 105.852H39.732V106.41L38.022 107.742V118.632L39.912 119.28ZM47.886 120H44.628L39.048 112.908L44.574 108.084L42.486 106.572L42.846 105.852H47.688V106.41L41.208 112.062L46.158 118.254L48.246 119.28L47.886 120ZM55.0383 120H49.5663V119.442L51.2583 118.11V107.202L49.3863 106.572L49.7463 105.852H55.2183V106.41L53.5083 107.742V118.632L55.3983 119.28L55.0383 120ZM70.007 110.028L69.467 110.208L67.073 106.662H64.877V118.632L66.767 119.28L66.407 120H60.935V119.442L62.627 118.11V106.662H60.485L58.091 110.208L57.551 110.028V105.528L58.523 105.852H69.035L70.007 105.528V110.028ZM80.2676 105.492C80.9036 105.492 81.6356 105.582 82.4636 105.762C83.3036 105.942 83.9156 106.134 84.2996 106.338V109.83H83.6156C82.5116 107.946 81.0476 107.004 79.2236 107.004C78.4316 107.004 77.7056 107.238 77.0456 107.706C76.3976 108.162 75.8876 108.804 75.5156 109.632C75.1436 110.448 74.9576 111.366 74.9576 112.386C74.9576 113.562 75.1376 114.636 75.4976 115.608C75.8696 116.58 76.4276 117.36 77.1716 117.948C77.9276 118.536 78.8576 118.83 79.9616 118.83C80.9816 118.83 82.4456 118.062 84.3536 116.526L84.8936 117.39L81.5816 119.964C81.1376 120.12 80.7056 120.222 80.2856 120.27C79.8776 120.33 79.4336 120.36 78.9536 120.36C77.6936 120.36 76.5776 120.054 75.6056 119.442C74.6336 118.83 73.8776 117.99 73.3376 116.922C72.7976 115.842 72.5276 114.618 72.5276 113.25C72.5276 111.846 72.9356 110.55 73.7516 109.362C74.5676 108.162 75.5816 107.22 76.7936 106.536C78.0056 105.84 79.1636 105.492 80.2676 105.492ZM101.945 120H96.4732V119.442L98.1652 118.11V113.358H91.0552V118.632L92.9452 119.28L92.5852 120H87.1132V119.442L88.8052 118.11V107.202L86.9332 106.572L87.2932 105.852H92.7652V106.41L91.0552 107.742V112.548H98.1652V107.202L96.2932 106.572L96.6532 105.852H102.125V106.41L100.415 107.742V118.632L102.305 119.28L101.945 120ZM115.087 120H104.287V119.442L105.979 118.11V107.202L104.107 106.572L104.467 105.852H114.907L115.879 105.528V109.668L115.339 109.848L113.197 106.662H108.229V112.368H111.055L112.369 110.064H112.927V115.536L112.207 115.896L111.073 113.178H108.229V119.19H113.125L115.519 115.644L116.059 115.824V120.324L115.087 120ZM131.169 107.76V120.018H130.179L121.629 109.2V118.344L123.519 119.298L123.159 120.018H118.947V119.46L120.639 118.128V107.58L118.767 106.572L119.127 105.852H121.845L130.179 116.4V107.508L128.307 106.572L128.667 105.852H132.879V106.428L131.169 107.76Z" fill="#1E4B6A"/>
<defs>
<clipPath id="clip0_9_2">
<rect width="71" height="92" fill="white" transform="translate(48 4)"/>
</clipPath>
</defs>
</svg>
