<svg width="167" height="146" viewBox="0 0 167 146" fill="none" xmlns="http://www.w3.org/2000/svg">
<rect width="167" height="146" fill="white"/>
<g clip-path="url(#clip0_9_2)">
<path d="M83.5687 95.9975C83.5014 95.9553 83.4284 95.8981 83.3498 95.841C82.0981 94.467 74.3547 85.8802 66.4653 74.8659C64.0966 71.3577 62.5613 68.6196 62.8588 67.9115C63.6307 66.0704 77.3858 65.0617 81.621 66.7313C82.9092 67.2382 82.8755 67.9066 82.8755 68.2991C82.8755 69.9837 82.7829 74.5057 82.7829 74.5057C82.7829 75.4399 83.6389 76.1977 84.697 76.1952C85.7551 76.1952 86.6083 75.4324 86.6055 74.4957L86.5858 63.233H86.583C86.583 62.2541 85.3762 62.0106 85.1517 61.9708C82.9401 61.9584 78.4523 61.9485 73.6306 61.9485C62.9936 61.9485 60.6136 62.3361 58.8117 61.2876C54.8965 59.0216 48.4947 43.7463 48.3459 35.1495C48.1354 23.0246 56.2465 12.5272 67.675 7.32689C72.4462 5.20006 77.8349 4 83.5322 4C101.618 4 116.515 16.0851 118.497 31.6363C118.497 31.6487 118.497 31.6661 118.5 31.6785C118.865 35.4377 95.4603 36.2353 90.8322 35.1421C90.1221 34.9756 89.9425 34.3296 89.9425 34.0538C89.9397 31.1965 89.9173 23.1513 89.9173 23.1513C89.9145 22.2147 89.0556 21.4593 87.9975 21.4593C86.9423 21.4593 86.0863 22.2221 86.0863 23.1588L86.1283 37.977C86.162 38.9112 87.0461 39.1621 87.2903 39.2069C89.9229 39.2069 96.0777 39.2044 101.812 39.2044C109.561 39.2044 112.816 39.9995 114.983 41.4579C116.423 42.4294 116.978 44.2904 116.493 46.7104C112.146 68.2271 84.6128 94.8894 83.5772 96L83.5687 95.9975Z" fill="#FC8019"/>
</g>
<path d="M25.552 125H20.08V124.442L21.772 123.11V112.202L19.9 111.572L20.26 110.852H25.732V111.41L24.022 112.742V123.632L25.912 124.28L25.552 125ZM40.1067 112.76V125.018H39.1167L30.5667 114.2V123.344L32.4567 124.298L32.0967 125.018H27.8847V124.46L29.5767 123.128V112.58L27.7047 111.572L28.0647 110.852H30.7827L39.1167 121.4V112.508L37.2447 111.572L37.6047 110.852H41.8167V111.428L40.1067 112.76ZM51.5731 121.814C51.5731 121.442 51.4231 121.094 51.1231 120.77C50.8231 120.446 50.4451 120.152 49.9891 119.888C49.5451 119.612 48.9391 119.276 48.1711 118.88C47.2591 118.4 46.5271 117.992 45.9751 117.656C45.4231 117.308 44.9491 116.9 44.5531 116.432C44.1691 115.964 43.9771 115.448 43.9771 114.884C43.9771 114.284 44.2291 113.642 44.7331 112.958C45.2371 112.262 45.8491 111.68 46.5691 111.212C47.3011 110.732 47.9731 110.492 48.5851 110.492C49.3291 110.492 50.1931 110.582 51.1771 110.762C52.1611 110.942 52.8811 111.134 53.3371 111.338V114.83H52.6531C52.0651 113.858 51.4171 113.102 50.7091 112.562C50.0131 112.022 49.2811 111.752 48.5131 111.752C47.8291 111.752 47.2831 111.968 46.8751 112.4C46.4791 112.82 46.2811 113.372 46.2811 114.056C46.2811 114.452 46.4311 114.824 46.7311 115.172C47.0431 115.508 47.4211 115.808 47.8651 116.072C48.3211 116.336 48.9511 116.678 49.7551 117.098C50.6431 117.542 51.3631 117.938 51.9151 118.286C52.4671 118.622 52.9291 119.018 53.3011 119.474C53.6851 119.918 53.8771 120.422 53.8771 120.986C53.8771 121.586 53.6071 122.234 53.0671 122.93C52.5271 123.614 51.8671 124.196 51.0871 124.676C50.3191 125.144 49.6171 125.378 48.9811 125.378C48.2011 125.378 47.2711 125.288 46.1911 125.108C45.1231 124.928 44.3551 124.736 43.8871 124.532V121.04H44.5711C45.1831 122.012 45.8791 122.768 46.6591 123.308C47.4391 123.848 48.2431 124.118 49.0711 124.118C49.5631 124.118 50.0011 124.01 50.3851 123.794C50.7691 123.578 51.0631 123.296 51.2671 122.948C51.4711 122.588 51.5731 122.21 51.5731 121.814ZM68.8566 115.028L68.3166 115.208L65.9226 111.662H63.7266V123.632L65.6166 124.28L65.2566 125H59.7846V124.442L61.4766 123.11V111.662H59.3346L56.9406 115.208L56.4006 115.028V110.528L57.3726 110.852H67.8846L68.8566 110.528V115.028ZM83.2551 125H77.7831V124.442L79.4751 123.128L78.0891 119.798H72.0411L70.5651 123.2L73.7331 124.28L73.3731 125H67.9011V124.442L69.5931 123.11L74.6871 111.428L76.5591 110.51L81.8151 123.182L83.6151 124.28L83.2551 125ZM75.1371 112.67L72.4011 118.988H77.7651L75.1371 112.67ZM101.725 125.018H96.2532V124.46L97.9452 123.128V113.174L93.1392 125.018H92.1492L87.3792 113.048V123.344L89.2692 124.298L88.9092 125.018H84.6972V124.46L86.3892 123.128V112.58L84.5172 111.572L84.8772 110.852H88.7832L93.2832 122.156L97.7652 110.852H101.905V111.41L100.195 112.742V123.632L102.085 124.298L101.725 125.018ZM118.288 125H112.816V124.442L114.508 123.128L113.122 119.798H107.074L105.598 123.2L108.766 124.28L108.406 125H102.934V124.442L104.626 123.11L109.72 111.428L111.592 110.51L116.848 123.182L118.648 124.28L118.288 125ZM110.17 112.67L107.434 118.988H112.798L110.17 112.67ZM132.87 125.036H129.522L125.562 118.646L124.716 118.034L124.986 117.494H125.994C126.81 117.494 127.452 117.29 127.92 116.882C128.4 116.462 128.64 115.892 128.64 115.172C128.64 114.224 128.376 113.438 127.848 112.814C127.32 112.178 126.552 111.86 125.544 111.86C124.872 111.86 124.254 112.058 123.69 112.454V123.668L125.58 124.316L125.22 125.036H119.748V124.478L121.44 123.146V112.202L119.568 111.59L119.928 110.87H122.016C123.108 110.87 124.182 110.834 125.238 110.762C126.006 110.714 126.576 110.69 126.948 110.69C127.752 110.69 128.466 110.852 129.09 111.176C129.726 111.5 130.212 111.938 130.548 112.49C130.896 113.042 131.07 113.648 131.07 114.308C131.07 114.908 130.884 115.484 130.512 116.036C130.14 116.576 129.648 117.05 129.036 117.458C128.436 117.854 127.8 118.154 127.128 118.358L128.298 118.754L131.088 123.254L133.23 124.316L132.87 125.036ZM146.921 115.028L146.381 115.208L143.987 111.662H141.791V123.632L143.681 124.28L143.321 125H137.849V124.442L139.541 123.11V111.662H137.399L135.005 115.208L134.465 115.028V110.528L135.437 110.852H145.949L146.921 110.528V115.028Z" fill="#1E4B6A"/>
<defs>
<clipPath id="clip0_9_2">
<rect width="71" height="92" fill="white" transform="translate(48 4)"/>
</clipPath>
</defs>
</svg>
